<svg xmlns="http://www.w3.org/2000/svg" viewBox="0 0 1440 900" role="img" aria-labelledby="t"><title id="t">LedgerLane concept interface board</title><defs><linearGradient id="g" x1="0" y1="0" x2="1" y2="1"><stop stop-color="#0A9C7B"/><stop offset="1" stop-color="#10121B"/></linearGradient><filter id="s"><feDropShadow dx="0" dy="18" stdDeviation="18" flood-opacity=".28"/></filter></defs><rect width="1440" height="900" fill="#0D0F16"/><circle cx="1180" cy="80" r="370" fill="#0A9C7B" opacity=".22"/><circle cx="190" cy="860" r="290" fill="#B8F38B" opacity=".13"/><text x="90" y="100" fill="#fff" font-size="30" font-family="Arial,sans-serif" font-weight="700">LedgerLane</text><text x="90" y="139" fill="#B8BDC9" font-size="18" font-family="Arial,sans-serif">B2B FINTECH CONCEPT · INDEPENDENT PRODUCT CONCEPT</text><text x="90" y="244" fill="#fff" font-size="59" font-family="Arial,sans-serif" font-weight="700">Make accounts receivable visible before it</text><rect x="90" y="320" width="720" height="470" rx="28" fill="#171B26" filter="url(#s)"/><rect x="118" y="350" width="664" height="74" rx="17" fill="#222838"/><circle cx="155" cy="387" r="13" fill="#B8F38B"/><rect x="185" y="374" width="220" height="14" rx="7" fill="#FAFAFD"/><rect x="185" y="398" width="125" height="10" rx="5" fill="#81899B"/><rect x="118" y="454" width="310" height="302" rx="20" fill="url(#g)"/><text x="148" y="498" fill="#fff" font-size="16" font-family="Arial" font-weight="700">NEXT BEST ACTION</text><text x="148" y="566" fill="#fff" font-size="48" font-family="Arial" font-weight="700">R 4 850</text><rect x="148" y="604" width="188" height="13" rx="6" fill="#fff" opacity=".65"/><rect x="148" y="633" width="135" height="11" rx="5" fill="#fff" opacity=".36"/><rect x="458" y="454" width="324" height="140" rx="20" fill="#222838"/><text x="486" y="493" fill="#B8BDC9" font-size="14" font-family="Arial">ACTIVITY</text><path d="M486 555 C530 500 573 579 625 525 S705 556 750 485" fill="none" stroke="#B8F38B" stroke-width="7" stroke-linecap="round"/><rect x="458" y="616" width="324" height="140" rx="20" fill="#222838"/><rect x="486" y="651" width="150" height="14" rx="7" fill="#fff"/><rect x="486" y="681" width="245" height="11" rx="5" fill="#81899B"/><rect x="486" y="709" width="190" height="11" rx="5" fill="#81899B"/><rect x="925" y="190" width="305" height="585" rx="42" fill="#F5F6FA" filter="url(#s)"/><rect x="948" y="230" width="260" height="48" rx="15" fill="#10121B"/><text x="970" y="261" fill="#fff" font-size="15" font-family="Arial" font-weight="700">LedgerLane mobile</text><rect x="948" y="310" width="260" height="170" rx="20" fill="#0A9C7B"/><text x="972" y="350" fill="#fff" font-size="14" font-family="Arial" font-weight="700">TODAY</text><rect x="972" y="382" width="145" height="16" rx="8" fill="#fff"/><rect x="972" y="415" width="104" height="11" rx="5" fill="#fff" opacity=".7"/><rect x="948" y="508" width="260" height="92" rx="16" fill="#E7E9F0"/><rect x="970" y="532" width="142" height="13" rx="6" fill="#222838"/><rect x="970" y="560" width="192" height="9" rx="4" fill="#81899B"/><rect x="948" y="620" width="260" height="92" rx="16" fill="#E7E9F0"/><rect x="970" y="644" width="170" height="13" rx="6" fill="#222838"/><rect x="970" y="672" width="155" height="9" rx="4" fill="#81899B"/></svg>