<svg xmlns="http://www.w3.org/2000/svg" width="300" height="520" viewBox="0 0 300 520">
  <defs>
    <linearGradient id="bg" x1="0" y1="0" x2="1" y2="1">
      <stop offset="0%" stop-color="#120e0a"/>
      <stop offset="100%" stop-color="#0A0705"/>
    </linearGradient>
  </defs>
  <rect width="300" height="520" rx="28" fill="url(#bg)"/>
  <rect x="1" y="1" width="298" height="518" rx="27" fill="none" stroke="rgba(240,165,0,0.25)"/>
  <!-- status bar -->
  <text x="28" y="36" fill="rgba(245,237,216,0.5)" font-family="Inter,Arial,sans-serif" font-size="11" font-weight="600">09:41</text>
  <circle cx="250" cy="32" r="3" fill="#1DB954"/>
  <circle cx="262" cy="32" r="3" fill="rgba(245,237,216,0.35)"/>
  <circle cx="274" cy="32" r="3" fill="rgba(245,237,216,0.35)"/>
  
  <rect x="28" y="72" width="83" height="22" rx="11" fill="#8B5CF6" opacity="0.15" stroke="#8B5CF6" stroke-opacity="0.4"/>
  <text x="69.5" y="87" text-anchor="middle" fill="#8B5CF6" font-family="Inter,Arial,sans-serif" font-size="9" font-weight="800" letter-spacing="1">INVESTING</text>

  <text x="28" y="98" fill="#F5EDD8" font-family="Bebas Neue,Arial Black,sans-serif" font-size="28" letter-spacing="1">EASYEQUITIES+</text>
  <text x="28" y="118" fill="rgba(245,237,216,0.55)" font-family="Inter,Arial,sans-serif" font-size="11">First-time investor flow</text>
  
  <rect x="28" y="118" width="244" height="72" rx="14" fill="#8B5CF6" opacity="0.18"/>
  <text x="44" y="146" fill="#F5EDD8" font-family="Inter,Arial,sans-serif" font-size="12" font-weight="700">Invest from</text>
  <text x="44" y="170" fill="#8B5CF6" font-family="Bebas Neue,Arial Black,sans-serif" font-size="26">R 5</text>

  <rect x="28" y="206" width="58" height="28" rx="14" fill="rgba(245,237,216,0.08)" stroke="#8B5CF6" stroke-opacity="0.35"/>
  <text x="57.0" y="224" text-anchor="middle" fill="#8B5CF6" font-family="Inter,Arial,sans-serif" font-size="10" font-weight="700">TFSA</text>

  <rect x="94" y="206" width="58" height="28" rx="14" fill="rgba(245,237,216,0.08)" stroke="#8B5CF6" stroke-opacity="0.35"/>
  <text x="123.0" y="224" text-anchor="middle" fill="#8B5CF6" font-family="Inter,Arial,sans-serif" font-size="10" font-weight="700">ETFs</text>

  <rect x="160" y="206" width="66" height="28" rx="14" fill="rgba(245,237,216,0.08)" stroke="#8B5CF6" stroke-opacity="0.35"/>
  <text x="193.0" y="224" text-anchor="middle" fill="#8B5CF6" font-family="Inter,Arial,sans-serif" font-size="10" font-weight="700">Shares</text>

  <rect x="28" y="250" width="244" height="52" rx="12" fill="rgba(245,237,216,0.04)" stroke="rgba(245,237,216,0.08)"/>
  <circle cx="52" cy="276" r="14" fill="#8B5CF6" opacity="0.2"/>
  <text x="52" y="281" text-anchor="middle" font-size="12">📈</text>
  <text x="76" y="272" fill="#F5EDD8" font-family="Inter,Arial,sans-serif" font-size="12" font-weight="700">Satrix 40</text>
  <text x="76" y="288" fill="rgba(245,237,216,0.55)" font-family="Inter,Arial,sans-serif" font-size="10">Top 40 · low fees</text>
  <text x="256" y="280" text-anchor="end" fill="#8B5CF6" font-family="Inter,Arial,sans-serif" font-size="12" font-weight="700">+1.2%</text>

  <rect x="28" y="310" width="244" height="52" rx="12" fill="rgba(245,237,216,0.04)" stroke="rgba(245,237,216,0.08)"/>
  <circle cx="52" cy="336" r="14" fill="#8B5CF6" opacity="0.2"/>
  <text x="52" y="341" text-anchor="middle" font-size="12">🎓</text>
  <text x="76" y="332" fill="#F5EDD8" font-family="Inter,Arial,sans-serif" font-size="12" font-weight="700">Learn path</text>
  <text x="76" y="348" fill="rgba(245,237,216,0.55)" font-family="Inter,Arial,sans-serif" font-size="10">3 min · plain English</text>
  <text x="256" y="340" text-anchor="end" fill="#8B5CF6" font-family="Inter,Arial,sans-serif" font-size="12" font-weight="700">Start</text>

  <rect x="28" y="370" width="244" height="44" rx="12" fill="#8B5CF6"/>
  <text x="150" y="398" text-anchor="middle" fill="#0A0705" font-family="Inter,Arial,sans-serif" font-size="13" font-weight="800">Buy first share</text>

  <!-- home indicator -->
  <rect x="110" y="498" width="80" height="5" rx="2.5" fill="rgba(245,237,216,0.2)"/>
</svg>