<svg xmlns="http://www.w3.org/2000/svg" width="300" height="520" viewBox="0 0 300 520">
  <defs>
    <linearGradient id="bg" x1="0" y1="0" x2="1" y2="1">
      <stop offset="0%" stop-color="#120e0a"/>
      <stop offset="100%" stop-color="#0A0705"/>
    </linearGradient>
  </defs>
  <rect width="300" height="520" rx="28" fill="url(#bg)"/>
  <rect x="1" y="1" width="298" height="518" rx="27" fill="none" stroke="rgba(240,165,0,0.25)"/>
  <!-- status bar -->
  <text x="28" y="36" fill="rgba(245,237,216,0.5)" font-family="Inter,Arial,sans-serif" font-size="11" font-weight="600">09:41</text>
  <circle cx="250" cy="32" r="3" fill="#1DB954"/>
  <circle cx="262" cy="32" r="3" fill="rgba(245,237,216,0.35)"/>
  <circle cx="274" cy="32" r="3" fill="rgba(245,237,216,0.35)"/>
  
  <rect x="28" y="72" width="111" height="22" rx="11" fill="#00C2FF" opacity="0.15" stroke="#00C2FF" stroke-opacity="0.4"/>
  <text x="83.5" y="87" text-anchor="middle" fill="#00C2FF" font-family="Inter,Arial,sans-serif" font-size="9" font-weight="800" letter-spacing="1">BANKING · KYC</text>

  <text x="28" y="98" fill="#F5EDD8" font-family="Bebas Neue,Arial Black,sans-serif" font-size="28" letter-spacing="1">SA ID VERIFY</text>
  <text x="28" y="118" fill="rgba(245,237,216,0.55)" font-family="Inter,Arial,sans-serif" font-size="11">FICA-ready onboarding</text>
  
  <rect x="28" y="118" width="244" height="72" rx="14" fill="#00C2FF" opacity="0.18"/>
  <text x="44" y="146" fill="#F5EDD8" font-family="Inter,Arial,sans-serif" font-size="12" font-weight="700">Verify in</text>
  <text x="44" y="170" fill="#00C2FF" font-family="Bebas Neue,Arial Black,sans-serif" font-size="26">~2 min</text>

  <rect x="28" y="206" width="244" height="52" rx="12" fill="rgba(245,237,216,0.04)" stroke="rgba(245,237,216,0.08)"/>
  <circle cx="52" cy="232" r="14" fill="#00C2FF" opacity="0.2"/>
  <text x="52" y="237" text-anchor="middle" font-size="12">🪪</text>
  <text x="76" y="228" fill="#F5EDD8" font-family="Inter,Arial,sans-serif" font-size="12" font-weight="700">Smart ID scan</text>
  <text x="76" y="244" fill="rgba(245,237,216,0.55)" font-family="Inter,Arial,sans-serif" font-size="10">Front + barcode</text>
  <text x="256" y="236" text-anchor="end" fill="#00C2FF" font-family="Inter,Arial,sans-serif" font-size="12" font-weight="700">Next</text>

  <rect x="28" y="266" width="244" height="52" rx="12" fill="rgba(245,237,216,0.04)" stroke="rgba(245,237,216,0.08)"/>
  <circle cx="52" cy="292" r="14" fill="#00C2FF" opacity="0.2"/>
  <text x="52" y="297" text-anchor="middle" font-size="12">🤳</text>
  <text x="76" y="288" fill="#F5EDD8" font-family="Inter,Arial,sans-serif" font-size="12" font-weight="700">Liveness check</text>
  <text x="76" y="304" fill="rgba(245,237,216,0.55)" font-family="Inter,Arial,sans-serif" font-size="10">Works in low light</text>
  <text x="256" y="296" text-anchor="end" fill="#00C2FF" font-family="Inter,Arial,sans-serif" font-size="12" font-weight="700"></text>

  <rect x="28" y="326" width="244" height="52" rx="12" fill="rgba(245,237,216,0.04)" stroke="rgba(245,237,216,0.08)"/>
  <circle cx="52" cy="352" r="14" fill="#00C2FF" opacity="0.2"/>
  <text x="52" y="357" text-anchor="middle" font-size="12">🏠</text>
  <text x="76" y="348" fill="#F5EDD8" font-family="Inter,Arial,sans-serif" font-size="12" font-weight="700">Proof of address</text>
  <text x="76" y="364" fill="rgba(245,237,216,0.55)" font-family="Inter,Arial,sans-serif" font-size="10">Municipal · bank letter</text>
  <text x="256" y="356" text-anchor="end" fill="#00C2FF" font-family="Inter,Arial,sans-serif" font-size="12" font-weight="700"></text>

  <rect x="28" y="386" width="244" height="44" rx="12" fill="#00C2FF"/>
  <text x="150" y="414" text-anchor="middle" fill="#0A0705" font-family="Inter,Arial,sans-serif" font-size="13" font-weight="800">Start FICA</text>

  <!-- home indicator -->
  <rect x="110" y="498" width="80" height="5" rx="2.5" fill="rgba(245,237,216,0.2)"/>
</svg>